<?xml version="1.0" standalone="no"?>
<!DOCTYPE svg PUBLIC "-//W3C//DTD SVG 20010904//EN"
 "http://www.w3.org/TR/2001/REC-SVG-20010904/DTD/svg10.dtd">
<svg version="1.0" xmlns="http://www.w3.org/2000/svg"
 width="260.000000pt" height="260.000000pt" viewBox="0 0 260.000000 260.000000"
 preserveAspectRatio="xMidYMid meet">
<metadata>
Created by potrace 1.14, written by Peter Selinger 2001-2017
</metadata>
<g transform="translate(0.000000,260.000000) scale(0.100000,-0.100000)"
fill="#000000" stroke="none">
<path d="M1230 2211 c-100 -31 -179 -123 -204 -238 -6 -24 1 -50 24 -107 27
-64 46 -90 116 -161 46 -47 84 -94 84 -104 0 -25 -28 -48 -44 -35 -71 51 -64
50 -113 24 -24 -13 -67 -49 -96 -80 -43 -46 -58 -74 -90 -161 -20 -57 -37
-118 -37 -135 0 -40 -51 -205 -83 -269 -14 -27 -45 -72 -69 -99 l-44 -49 -129
11 c-173 14 -269 5 -322 -30 -36 -24 -73 -78 -73 -107 0 -28 42 -90 92 -138
67 -62 125 -93 277 -143 155 -51 265 -64 478 -55 214 8 403 8 620 0 271 -12
411 13 612 107 138 65 231 158 231 232 0 42 -42 95 -94 120 -40 19 -190 24
-334 12 l-93 -8 -38 41 c-71 77 -128 214 -152 364 -24 150 -87 278 -174 355
-56 49 -104 56 -149 21 -33 -26 -56 -18 -56 18 0 22 17 45 76 103 87 86 144
186 144 255 0 51 -47 150 -91 192 -64 60 -187 89 -269 64z m133 -105 c61 -26
117 -103 117 -161 0 -51 -132 -215 -174 -215 -29 0 -110 88 -152 164 -24 44
-25 52 -15 87 15 51 56 98 106 120 48 22 75 23 118 5z m-183 -627 c0 -11 -15
-50 -33 -87 -74 -149 -117 -313 -117 -446 0 -75 29 -217 55 -266 17 -32 20
-70 6 -70 -15 0 -105 42 -136 64 -16 11 -52 30 -80 41 -46 18 -50 23 -53 57
-3 30 3 44 31 75 32 36 97 197 97 241 0 35 57 238 80 282 34 68 69 111 104
125 36 15 46 12 46 -16z m338 -10 c46 -43 87 -130 116 -245 49 -200 55 -220
74 -276 11 -31 36 -80 56 -108 20 -29 36 -60 36 -70 0 -23 -28 -47 -75 -64
-22 -7 -71 -32 -110 -55 -105 -62 -118 -55 -81 41 86 222 66 432 -69 710 -20
42 -34 82 -30 88 12 19 50 10 83 -21z m-192 -17 c13 -8 73 -151 116 -277 28
-81 31 -102 31 -210 0 -102 -4 -132 -26 -201 -28 -85 -82 -168 -118 -179 -57
-19 -124 57 -163 186 -21 69 -26 105 -26 195 0 123 22 208 99 383 46 105 60
122 87 103z m-778 -790 c44 -48 60 -51 109 -21 48 30 76 23 244 -61 155 -77
196 -107 185 -136 -10 -27 -305 -14 -436 20 -100 25 -208 67 -250 96 -14 9
-39 22 -57 29 -42 17 -65 44 -61 73 4 33 56 48 150 45 76 -2 77 -2 116 -45z
m1761 29 c11 -7 21 -21 21 -33 0 -23 -36 -68 -55 -68 -6 0 -31 -12 -56 -28
-58 -36 -164 -77 -269 -102 -78 -18 -341 -40 -397 -32 -32 5 -36 30 -8 56 28
26 305 165 346 173 16 3 42 -3 67 -16 56 -29 69 -27 105 15 18 20 41 40 52 45
26 12 166 4 194 -10z"/>
</g>
</svg>
